<svg width="38" height="30" viewBox="0 0 38 30" fill="none" xmlns="http://www.w3.org/2000/svg">
<path d="M4.16602 1.80017H19.1514L20.8165 13.35M5.83106 13.35V1.80017M12.4912 11.7V1.80017M29.1417 3.45014C28.1427 3.45014 27.4766 4.11013 27.4766 5.10012V14.34" stroke="#1A313F" stroke-width="3.33333" stroke-linecap="round" stroke-linejoin="round"/>
<path d="M15.8203 13.35L34.1358 14.835C35.1348 14.835 35.6343 15.6599 35.4678 16.6499L34.1358 24.8998H32.4708" stroke="#1A313F" stroke-width="3.33333" stroke-linecap="round" stroke-linejoin="round"/>
<path d="M10.8247 20.7749C11.2845 20.7749 11.6572 20.4055 11.6572 19.9499C11.6572 19.4942 11.2845 19.1249 10.8247 19.1249C10.3649 19.1249 9.99219 19.4942 9.99219 19.9499C9.99219 20.4055 10.3649 20.7749 10.8247 20.7749Z" stroke="#1A313F" stroke-width="3.33333" stroke-linecap="round" stroke-linejoin="round"/>
<path d="M10.8252 28.1997C15.4231 28.1997 19.1505 24.5061 19.1505 19.9498C19.1505 15.3935 15.4231 11.7 10.8252 11.7C6.22733 11.7 2.5 15.3935 2.5 19.9498C2.5 24.5061 6.22733 28.1997 10.8252 28.1997Z" stroke="#1A313F" stroke-width="3.33333" stroke-linecap="round" stroke-linejoin="round"/>
<path d="M25.8106 24.8997H17.4854" stroke="#1A313F" stroke-width="3.33333" stroke-linecap="round" stroke-linejoin="round"/>
<path d="M29.1397 28.1997C30.9788 28.1997 32.4698 26.7223 32.4698 24.8998C32.4698 23.0773 30.9788 21.5999 29.1397 21.5999C27.3005 21.5999 25.8096 23.0773 25.8096 24.8998C25.8096 26.7223 27.3005 28.1997 29.1397 28.1997Z" stroke="#1A313F" stroke-width="3.33333" stroke-linecap="round" stroke-linejoin="round"/>
</svg>
