<svg width="34" height="34" viewBox="0 0 34 34" fill="none" xmlns="http://www.w3.org/2000/svg">
<path d="M17.333 0.242188C8.23516 0.242188 0.833008 7.76 0.833008 17C0.833008 26.24 8.23516 33.7578 17.333 33.7578C26.4309 33.7578 33.833 26.24 33.833 17C33.833 7.76 26.4309 0.242188 17.333 0.242188ZM17.333 2.82031C25.0588 2.82031 31.2945 9.15348 31.2945 17C31.2945 24.8465 25.0588 31.1797 17.333 31.1797C9.6072 31.1797 3.37147 24.8465 3.37147 17C3.37147 9.15348 9.6072 2.82031 17.333 2.82031ZM16.0638 9.26562V15.7109H9.71762V18.2891H16.0638V24.7344H18.6022V18.2891H24.9484V15.7109H18.6022V9.26562H16.0638Z" fill="#5B5B5B"/>
</svg>
