<svg width="34" height="34" viewBox="0 0 34 34" fill="none" xmlns="http://www.w3.org/2000/svg">
<path d="M29.5978 20.1158L29.4534 18.6648L29.4053 18.6691L29.3586 18.6779L29.5978 20.1158ZM29.5978 20.1158L29.7436 21.5668L29.7917 21.5625L29.8384 21.5552L29.5978 20.1158ZM23.7061 28.1104L24.6292 26.9816L24.6176 26.9729L23.7061 28.1104ZM23.7061 28.1104L22.783 29.2391L22.7946 29.2493L23.7061 28.1104ZM10.2953 28.1104L9.37214 26.9831L9.34881 27.0021L9.32693 27.021L10.2953 28.1104ZM10.2953 28.1104L11.2184 29.2406L11.2417 29.2216L11.2636 29.2012L10.2953 28.1104ZM4.40214 13.8858V12.4275H4.32922L4.25776 12.4348L4.40214 13.8858ZM4.40214 13.8858V15.3441H4.47506L4.54797 15.3368L4.40214 13.8858ZM21.5667 4.25643C21.5423 3.97596 21.5078 3.69631 21.4661 3.41789C21.4206 3.11154 21.3271 2.81427 21.189 2.53705L18.5976 3.8758C18.564 3.81018 18.5713 3.78684 18.5903 3.90205C18.6121 4.03184 18.6311 4.21268 18.6646 4.54809L21.5667 4.25643ZM21.7053 5.64184C21.7971 5.76143 21.7665 5.81539 21.7155 5.53101C21.6673 5.25976 21.6294 4.87914 21.5667 4.25643L18.6632 4.54664C18.7215 5.12122 18.7711 5.63747 18.8455 6.04872C18.9169 6.44247 19.0423 6.96018 19.3851 7.40934L21.7053 5.64184ZM21.7053 5.64184L19.3851 7.40934C19.6972 7.81891 20.1121 8.13855 20.5878 8.33579C21.0634 8.53302 21.5828 8.6008 22.0932 8.53226L21.7053 5.64184ZM22.7815 4.75955C22.4547 5.03577 22.1186 5.30085 21.7738 5.55434C21.5361 5.71914 21.5551 5.6608 21.7053 5.64184L22.0932 8.53226C22.6532 8.45643 23.1082 8.17934 23.4378 7.94893C23.7805 7.71268 24.1815 7.38309 24.6278 7.01705L22.7815 4.75955ZM24.2632 3.81164C23.9698 3.90974 23.6937 4.05345 23.4451 4.23747C23.2409 4.3833 23.0119 4.57143 22.7815 4.75955L24.6278 7.01705C24.8888 6.80414 25.0303 6.68893 25.1382 6.61309C25.233 6.54455 25.2198 6.56789 25.1513 6.58976L24.2632 3.81164ZM26.3107 3.91372C25.663 3.63306 24.9355 3.59679 24.2632 3.81164L25.1513 6.58976L26.3107 3.91372ZM27.6903 5.00455C27.494 4.80256 27.2912 4.60704 27.0821 4.4183C26.8526 4.21054 26.5918 4.04025 26.3092 3.91372L25.1513 6.58976C25.0842 6.56059 25.074 6.53726 25.1615 6.61455C25.2607 6.70205 25.3905 6.82893 25.6282 7.06664L27.6903 5.00455ZM28.994 6.3083L27.6903 5.00455L25.6282 7.06664L26.9319 8.37039L28.994 6.3083ZM30.0848 7.68789C29.9583 7.40533 29.788 7.14449 29.5803 6.91497C29.3911 6.70677 29.1956 6.50445 28.994 6.3083L26.9319 8.37184C27.1696 8.60955 27.2965 8.73934 27.384 8.83851C27.4613 8.92601 27.438 8.9158 27.4088 8.84872L30.0848 7.68789ZM30.1869 9.73539C30.4018 9.06302 30.3655 8.33555 30.0848 7.68789L27.4088 8.84872L30.1869 9.73539ZM29.239 11.2171C29.4205 11.0018 29.5946 10.7805 29.7611 10.5535C29.9157 10.3377 30.0819 10.0693 30.1869 9.73539L27.4088 8.84872C27.4307 8.78018 27.4526 8.76559 27.3855 8.86184C27.3096 8.9683 27.1959 9.10976 26.9815 9.3708L29.239 11.2171ZM28.3567 12.2948C28.3378 12.445 28.2794 12.4625 28.4442 12.2248C28.6003 11.9987 28.8423 11.7012 29.239 11.2171L26.9815 9.3708C26.6169 9.81705 26.2859 10.2181 26.0482 10.5608C25.8192 10.8904 25.5421 11.3454 25.4663 11.9054L28.3567 12.2948ZM28.3567 12.2948L25.4663 11.9054C25.3978 12.4157 25.4656 12.9351 25.6628 13.4108C25.86 13.8864 26.1797 14.3014 26.5892 14.6135L28.3567 12.2948ZM29.7421 12.4333C29.3157 12.3976 28.8906 12.3475 28.4676 12.2831C28.1832 12.2321 28.2371 12.2029 28.3567 12.2948L26.5892 14.6135C27.0384 14.9562 27.5546 15.0816 27.9513 15.1531C28.3611 15.226 28.8773 15.2771 29.4519 15.3354L29.7421 12.4333ZM31.4615 12.8096C31.1843 12.6715 30.887 12.578 30.5807 12.5325C30.3023 12.4908 30.0226 12.4577 29.7421 12.4333L29.4519 15.3354C29.6678 15.3544 29.8833 15.3787 30.098 15.4083C30.2146 15.4287 30.1898 15.436 30.1242 15.4025L31.4615 12.8096ZM32.8367 14.3306C32.5775 13.6738 32.0889 13.1334 31.4615 12.8096L30.1257 15.4054L32.8367 14.3306ZM33.0409 16.0777C33.0409 15.7802 33.0409 15.4841 33.0248 15.2333C33.0097 14.9238 32.9457 14.6187 32.8353 14.3291L30.1257 15.4054C30.0994 15.3368 30.1082 15.3135 30.1169 15.4302C30.1257 15.5614 30.1257 15.7437 30.1257 16.0806L33.0409 16.0777ZM33.0409 17.921V16.0777H30.1242V17.921H33.0409ZM32.8367 19.6681C32.9651 19.3429 33.0073 19.0308 33.0248 18.7639C33.0409 18.5146 33.0409 18.2185 33.0409 17.921H30.1242C30.1242 18.2579 30.1242 18.4402 30.1155 18.5714C30.1067 18.6881 30.098 18.6648 30.1242 18.5962L32.8367 19.6681ZM31.4615 21.1891C32.0889 20.8653 32.5775 20.3248 32.8367 19.6681L30.1257 18.5977L31.4615 21.1891ZM29.7421 21.5654C30.0396 21.5362 30.3328 21.5071 30.5807 21.4662C30.8432 21.4225 31.1494 21.3496 31.4615 21.1891L30.1257 18.5977C30.1898 18.5641 30.2146 18.5714 30.0994 18.5904C29.8848 18.6214 29.6694 18.6462 29.4534 18.6648L29.7421 21.5654ZM28.3582 21.7039C28.2371 21.7958 28.1832 21.7666 28.4676 21.7156C28.7388 21.6675 29.1194 21.6281 29.7421 21.5654L29.4519 18.6633C28.8788 18.7216 28.3611 18.7712 27.9513 18.8456C27.5561 18.9171 27.0384 19.0425 26.5892 19.3852L28.3582 21.7039ZM28.3582 21.7039L26.5892 19.3852C26.1797 19.6973 25.86 20.1122 25.6628 20.5879C25.4656 21.0636 25.3978 21.583 25.4663 22.0933L28.3582 21.7039ZM29.239 22.7802C28.9629 22.4538 28.6978 22.1182 28.4442 21.7739C28.2794 21.5362 28.3392 21.5537 28.3582 21.7039L25.4663 22.0933C25.5421 22.6533 25.8192 23.1083 26.0496 23.4379C26.2873 23.7806 26.6169 24.1816 26.9815 24.6279L29.239 22.7802ZM30.1869 24.2618C30.0887 23.969 29.945 23.6934 29.7611 23.4452C29.6153 23.2396 29.4271 23.0121 29.239 22.7802L26.9815 24.6279C27.1944 24.8889 27.3096 25.0289 27.3855 25.1368C27.454 25.2316 27.4321 25.22 27.4088 25.1514L30.1869 24.2618ZM30.0848 26.3108C30.3659 25.6627 30.4021 24.9347 30.1869 24.2618L27.4088 25.1514L30.0848 26.3108ZM28.994 27.6904C29.2055 27.4789 29.414 27.2718 29.5803 27.0823C29.7553 26.881 29.9448 26.6316 30.0848 26.3093L27.4088 25.15C27.438 25.0829 27.4613 25.0741 27.384 25.1616C27.2965 25.2608 27.1696 25.3891 26.9319 25.6283L28.994 27.6904ZM27.6903 28.9927L28.994 27.6904L26.9319 25.6283L25.6282 26.9306L27.6903 28.9927ZM26.3107 30.085C26.5933 29.958 26.8542 29.7872 27.0836 29.5789C27.2717 29.4141 27.4803 29.2041 27.6903 28.9927L25.6282 26.9306C25.4769 27.0857 25.3213 27.2364 25.1615 27.3827C25.074 27.4614 25.0842 27.4381 25.1513 27.4089L26.3107 30.085ZM24.2632 30.1871C24.9355 30.4019 25.663 30.3656 26.3107 30.085L25.1513 27.4089L24.2632 30.1871ZM22.7815 29.2391C23.0119 29.4273 23.2394 29.6154 23.4451 29.7612C23.6609 29.9143 23.9292 30.0806 24.2632 30.1871L25.1513 27.4089C25.2198 27.4308 25.233 27.4527 25.1367 27.3856C24.9632 27.2558 24.7935 27.1211 24.6278 26.9816L22.7815 29.2391ZM21.7053 28.3583C21.5551 28.3364 21.5361 28.2781 21.7738 28.4429C21.9998 28.6004 22.2959 28.841 22.7801 29.2377L24.6278 26.9816C24.1815 26.6156 23.7805 26.286 23.4378 26.0483C23.1082 25.8179 22.6532 25.5423 22.0932 25.4664L21.7053 28.3583ZM21.7053 28.3583L22.0932 25.4664C21.5828 25.3979 21.0634 25.4657 20.5878 25.6629C20.1121 25.8601 19.6972 26.1798 19.3851 26.5893L21.7053 28.3583ZM21.5653 29.7423C21.628 29.1196 21.6673 28.7375 21.7155 28.4677C21.7665 28.1833 21.7957 28.2358 21.7038 28.3568L19.3851 26.5879C19.0423 27.0371 18.9169 27.5548 18.8455 27.95C18.7726 28.3612 18.723 28.8775 18.6646 29.4521L21.5653 29.7423ZM21.1876 31.4616C21.348 31.1496 21.4209 30.8433 21.4646 30.5808C21.5084 30.3329 21.5346 30.0398 21.5653 29.7423L18.6646 29.4521C18.6452 29.6685 18.6199 29.883 18.5888 30.0981C18.5698 30.2148 18.5626 30.19 18.5961 30.1243L21.1876 31.4616ZM19.6694 32.8368C20.3251 32.5771 20.8644 32.0885 21.1876 31.4616L18.5976 30.1258L19.6694 32.8368ZM17.9194 33.041C18.2184 33.041 18.5144 33.041 18.7653 33.025C19.0307 33.0075 19.3428 32.9681 19.6694 32.8368L18.5976 30.1258C18.6661 30.0996 18.6894 30.1083 18.5728 30.1171C18.3561 30.1262 18.1392 30.1291 17.9223 30.1258L17.9194 33.041ZM16.0776 33.041H17.9194L17.9209 30.1243H16.0776V33.041ZM14.3305 32.8368C14.6557 32.9652 14.9678 33.0075 15.2346 33.025C15.484 33.041 15.7801 33.041 16.0776 33.041V30.1243C15.7407 30.1243 15.5584 30.1243 15.4271 30.1156C15.3105 30.1068 15.3338 30.0981 15.4023 30.1243L14.3305 32.8368ZM12.8094 31.4616C13.1333 32.089 13.6737 32.5777 14.3305 32.8368L15.4023 30.1243L12.8094 31.4616ZM12.4332 29.7423C12.4623 30.0398 12.4915 30.3329 12.5323 30.5808C12.5761 30.8433 12.649 31.1496 12.8094 31.4616L15.4053 30.1258C15.4388 30.19 15.4315 30.2148 15.4126 30.0996C15.3815 29.885 15.3567 29.6695 15.3382 29.4535L12.4332 29.7423ZM12.2946 28.3568C12.2028 28.2373 12.2319 28.1818 12.283 28.4677C12.3311 28.7375 12.3705 29.1196 12.4332 29.7423L15.3353 29.4521C15.2769 28.8775 15.2273 28.3612 15.153 27.95C15.0815 27.5562 14.9561 27.0385 14.6134 26.5893L12.2946 28.3568ZM12.2946 28.3568L14.6134 26.5893C14.3013 26.1798 13.8863 25.8601 13.4107 25.6629C12.935 25.4657 12.4156 25.3979 11.9053 25.4664L12.2946 28.3568ZM11.2169 29.2391C11.7026 28.8425 11.9986 28.6004 12.2246 28.4443C12.4623 28.2796 12.4448 28.3379 12.2946 28.3568L11.9053 25.4664C11.3453 25.5423 10.8903 25.8193 10.5607 26.0498C10.218 26.286 9.81693 26.6156 9.37068 26.9816L11.2169 29.2391ZM9.73526 30.1871C10.0286 30.0889 10.3047 29.9452 10.5534 29.7612C10.7576 29.6154 10.9865 29.4273 11.2169 29.2391L9.37214 26.9831C9.20591 27.1226 9.03715 27.2573 8.86318 27.3871C8.76839 27.4556 8.78151 27.4337 8.85006 27.4104L9.73526 30.1871ZM7.68776 30.085C8.33543 30.3656 9.0629 30.4019 9.73526 30.1871L8.84714 27.4089L7.68776 30.085ZM6.30672 28.9941C6.51818 29.2056 6.72672 29.4141 6.91631 29.5804C7.1161 29.7554 7.36547 29.9464 7.68922 30.0864L8.84714 27.4089C8.91422 27.4381 8.92443 27.4614 8.83693 27.3841C8.67704 27.238 8.52142 27.0872 8.37026 26.9321L6.30672 28.9941ZM5.00443 27.6904L6.30818 28.9941L8.37026 26.9321L7.06651 25.6283L5.00443 27.6904ZM3.9136 26.3108C4.05214 26.6316 4.24318 26.8825 4.41818 27.0837C4.58443 27.2718 4.79297 27.4804 5.00443 27.6904L7.06651 25.6283C6.91137 25.4771 6.76061 25.3215 6.61443 25.1616C6.53714 25.0741 6.56047 25.0843 6.58964 25.1514L3.9136 26.3108ZM3.81151 24.2633C3.59666 24.9357 3.63293 25.6631 3.9136 26.3108L6.58964 25.1514L3.81151 24.2633ZM4.75943 22.7816C4.57795 22.9968 4.40383 23.2182 4.23735 23.4452C4.05333 23.6938 3.90962 23.9699 3.81151 24.2633L6.58964 25.1514C6.56631 25.22 6.54589 25.2331 6.61297 25.1368C6.68881 25.0304 6.80256 24.8889 7.01693 24.6279L4.75943 22.7816ZM5.64026 21.7039C5.66068 21.5537 5.71901 21.5362 5.55422 21.7739C5.39818 22 5.1561 22.2975 4.75943 22.7816L7.01693 24.6279C7.38151 24.1816 7.71256 23.7806 7.95026 23.4379C8.17922 23.1083 8.45631 22.6533 8.53214 22.0933L5.64026 21.7039ZM5.64026 21.7039L8.53214 22.0933C8.60068 21.583 8.53289 21.0636 8.33566 20.5879C8.13843 20.1122 7.81879 19.6973 7.40922 19.3852L5.64026 21.7039ZM4.25485 21.5654C4.87901 21.6281 5.2611 21.6675 5.53089 21.7156C5.81526 21.7666 5.76131 21.7958 5.64026 21.7039L7.40922 19.3852C6.96006 19.0425 6.44381 18.9171 6.04714 18.8456C5.63735 18.7727 5.1211 18.7216 4.54506 18.6633L4.25485 21.5654ZM2.53693 21.1891C2.84901 21.3496 3.15526 21.4225 3.41776 21.4662C3.66568 21.5071 3.95881 21.5377 4.25631 21.5668L4.54506 18.6633C4.32905 18.6453 4.11507 18.6209 3.90047 18.5904C3.78381 18.57 3.8086 18.5627 3.87422 18.5962L2.53693 21.1891ZM1.16318 19.6696C1.42237 20.3263 1.91099 20.8667 2.53839 21.1906L3.87568 18.5977L1.16318 19.6696ZM0.959014 17.9225C0.959014 18.22 0.959014 18.516 0.975056 18.7668C0.992556 19.0323 1.03339 19.3443 1.16464 19.671L3.87568 18.5962C3.90193 18.6648 3.89318 18.6881 3.88589 18.5714C3.87627 18.3552 3.87287 18.1388 3.87568 17.9225H0.959014ZM0.959014 16.0791V17.9225H3.87568V16.0791H0.959014ZM1.16318 14.3306C1.05333 14.6202 0.989837 14.9254 0.975056 15.2348C0.957556 15.4856 0.959014 15.7816 0.959014 16.0806H3.87568C3.87568 15.7423 3.87568 15.56 3.88589 15.4287C3.89318 15.3121 3.90193 15.3354 3.87568 15.4039L1.16318 14.3306ZM2.53839 12.8125C1.91152 13.1356 1.42297 13.6749 1.16318 14.3306L3.87568 15.4039L2.53839 12.8125ZM4.25776 12.4333C3.96026 12.4639 3.66714 12.4916 3.41922 12.5354C3.15672 12.5791 2.85047 12.6521 2.53839 12.8125L3.87568 15.4039C3.81006 15.4375 3.78672 15.4302 3.90193 15.4112C4.11651 15.3802 4.33195 15.3554 4.54797 15.3368L4.25776 12.4333ZM5.64318 12.2962C5.76422 12.2043 5.81818 12.2335 5.53235 12.2846C5.26256 12.3327 4.88047 12.3721 4.25776 12.4348L4.54797 15.3368C5.1211 15.2785 5.63881 15.2289 6.05006 15.1546C6.44526 15.0831 6.96297 14.9577 7.41214 14.615L5.64318 12.2962ZM5.64318 12.2962L7.41214 14.615C7.82144 14.3027 8.1408 13.8877 8.33777 13.412C8.53474 12.9364 8.6023 12.4171 8.5336 11.9068L5.64318 12.2962ZM4.76089 11.2185C5.15756 11.7027 5.39964 12.0002 5.55714 12.2262C5.72193 12.4639 5.6636 12.4464 5.64318 12.2962L8.5336 11.9068C8.45776 11.3468 8.18214 10.8933 7.95172 10.5623C7.71401 10.2196 7.38297 9.81851 7.01839 9.37226L4.76089 11.2185ZM3.81297 9.73539C3.91943 10.0708 4.08422 10.3377 4.23881 10.555C4.38464 10.7591 4.57276 10.9881 4.76089 11.2185L7.01839 9.37226C6.87886 9.20604 6.74415 9.03729 6.61443 8.8633C6.54589 8.76851 6.56922 8.78018 6.5911 8.84872L3.81297 9.73539ZM3.91506 7.68934C3.63475 8.33658 3.59849 9.06346 3.81297 9.73539L6.5911 8.84872L3.91506 7.68934ZM5.00589 6.3083C4.79443 6.51976 4.58589 6.72684 4.41964 6.91643C4.21187 7.14595 4.04159 7.40679 3.91506 7.68934L6.5911 8.84872C6.56193 8.9158 6.5386 8.92601 6.61589 8.83705C6.70339 8.73789 6.83026 8.60955 7.06797 8.37039L5.00589 6.3083ZM6.30964 5.00601L5.00589 6.3083L7.06797 8.37039L8.37318 7.06809L6.30964 5.00601ZM7.68922 3.91372C7.40657 4.0407 7.14573 4.21148 6.91631 4.41976C6.70811 4.6089 6.50579 4.80441 6.30964 5.00601L8.37318 7.06809C8.61089 6.82893 8.73922 6.70205 8.83839 6.61601C8.92589 6.53726 8.91568 6.56059 8.8486 6.58976L7.68922 3.91372ZM9.73672 3.81164C9.06435 3.59679 8.33688 3.63306 7.68922 3.91372L8.8486 6.58976L9.73672 3.81164ZM11.2169 4.75955C10.9865 4.57143 10.7605 4.38476 10.5548 4.23893C10.3063 4.05439 10.0302 3.91019 9.73672 3.81164L8.8486 6.58976C8.78006 6.56789 8.76693 6.54601 8.86318 6.61309C8.96964 6.69039 9.1111 6.80414 9.37214 7.01851L11.2169 4.75955ZM12.2961 5.64184C12.4463 5.66226 12.4638 5.72059 12.2261 5.5558C11.8818 5.30228 11.5462 5.03719 11.2198 4.76101L9.37214 7.01851C9.81839 7.38309 10.218 7.71268 10.5607 7.95184C10.8903 8.1808 11.3453 8.45643 11.9053 8.53226L12.2961 5.64184ZM12.2961 5.64184L11.9067 8.53226C12.4171 8.6008 12.9365 8.53302 13.4121 8.33579C13.8878 8.13855 14.3027 7.81891 14.6148 7.40934L12.2961 5.64184ZM12.4346 4.25643C12.3719 4.88059 12.3326 5.26268 12.2844 5.53247C12.2334 5.81684 12.2042 5.76289 12.2961 5.64184L14.6148 7.40934C14.9576 6.96018 15.083 6.44393 15.1544 6.04872C15.2273 5.63893 15.2798 5.12122 15.3367 4.54664L12.4346 4.25643ZM12.8109 2.53851C12.6728 2.81573 12.5793 3.11299 12.5338 3.41934C12.493 3.66726 12.4638 3.96039 12.4346 4.25789L15.3367 4.54664C15.3557 4.33073 15.3801 4.11677 15.4096 3.90205C15.4301 3.78539 15.4373 3.81164 15.4038 3.8758L12.8109 2.53851ZM14.3319 1.1633C13.6752 1.42249 13.1347 1.91112 12.8109 2.53851L15.4038 3.8758L14.3319 1.1633ZM16.079 0.959136C15.7815 0.959136 15.4855 0.959136 15.2346 0.975178C14.9252 0.989959 14.6201 1.05345 14.3305 1.1633L15.4053 3.8758C15.3367 3.90205 15.3134 3.8933 15.4301 3.88601C15.5613 3.87726 15.7436 3.8758 16.0805 3.8758L16.079 0.959136ZM17.9223 0.959136H16.079V3.8758H17.9223V0.959136ZM19.6694 1.1633C19.3798 1.05345 19.0747 0.989959 18.7653 0.975178C18.5173 0.957678 18.2213 0.959136 17.9238 0.959136V3.8758C18.2607 3.8758 18.443 3.8758 18.5742 3.88601C18.6909 3.8933 18.6661 3.90205 18.5976 3.8758L19.6694 1.1633ZM21.1905 2.53851C20.8666 1.91112 20.3262 1.42249 19.6694 1.1633L18.5976 3.8758L21.1905 2.53851ZM21.3757 17.0008C21.3757 18.1611 20.9147 19.2739 20.0943 20.0944C19.2738 20.9149 18.161 21.3758 17.0007 21.3758V24.2925C18.9345 24.2925 20.7892 23.5242 22.1567 22.1568C23.5241 20.7893 24.2923 18.9347 24.2923 17.0008H21.3757ZM17.0007 12.6258C18.161 12.6258 19.2738 13.0867 20.0943 13.9072C20.9147 14.7277 21.3757 15.8405 21.3757 17.0008H24.2923C24.2923 15.0669 23.5241 13.2123 22.1567 11.8448C20.7892 10.4774 18.9345 9.70914 17.0007 9.70914V12.6258ZM12.6257 17.0008C12.6257 15.8405 13.0866 14.7277 13.9071 13.9072C14.7276 13.0867 15.8404 12.6258 17.0007 12.6258V9.70914C15.0668 9.70914 13.2121 10.4774 11.8447 11.8448C10.4772 13.2123 9.70901 15.0669 9.70901 17.0008H12.6257ZM17.0007 21.3758C15.8404 21.3758 14.7276 20.9149 13.9071 20.0944C13.0866 19.2739 12.6257 18.1611 12.6257 17.0008H9.70901C9.70901 18.9347 10.4772 20.7893 11.8447 22.1568C13.2121 23.5242 15.0668 24.2925 17.0007 24.2925V21.3758Z" fill="#5B5B5B"/>
</svg>
