<svg width="46" height="20" viewBox="0 0 46 20" fill="none" xmlns="http://www.w3.org/2000/svg">
<path d="M15.167 0V2.5H18.167V5H10.01L7.43299 1.79625L6.96199 1.25H0.166992V8.36L7.66699 10.86V20H29.4635L29.8865 19.4525L42.917 3.75H45.167V1.25H40.151L39.776 1.485L30.167 7.5V5H21.167V2.5H24.167V0H15.167ZM3.16699 3.75H5.32399L7.66699 6.68V8.125L3.16699 6.64V3.75ZM37.3385 6.1725L27.917 17.5H10.667V7.5H27.167V12.5L29.558 11.015L37.3385 6.1725ZM42.917 8.75C42.917 8.75 40.667 12.09 40.667 13.125C40.667 13.6223 40.904 14.0992 41.326 14.4508C41.748 14.8025 42.3203 15 42.917 15C43.5137 15 44.086 14.8025 44.508 14.4508C44.9299 14.0992 45.167 13.6223 45.167 13.125C45.167 12.09 42.917 8.75 42.917 8.75Z" fill="#5B5B5B"/>
</svg>
